<svg width="167" height="88" viewBox="0 0 167 88" fill="none" xmlns="http://www.w3.org/2000/svg">
<rect x="17.2036" width="139.796" height="25.9487" rx="12.9744" fill="#F2F4F5"/>
<rect x="16.9106" y="68.8205" width="56.3694" height="19.1795" rx="9.58974" fill="#F2F4F5"/>
<rect x="83.4268" y="68.8205" width="19.1656" height="19.1795" rx="9.5828" fill="#F2F4F5"/>
<rect y="25.9487" width="139.796" height="25.9487" rx="12.9744" fill="#F2F4F5"/>
<rect x="27.0571" y="38.359" width="139.796" height="25.9487" rx="12.9744" fill="#F2F4F5"/>
<path d="M84 42C88.4183 42 92 38.4183 92 34C92 29.5817 88.4183 26 84 26C79.5817 26 76 29.5817 76 34C76 38.4183 79.5817 42 84 42Z" stroke="white" stroke-width="3" stroke-miterlimit="10" stroke-linecap="round" stroke-linejoin="round"/>
<path d="M84 71C84 71 62 49 62 34.1C62 20.113 73.369 12 84 12C94.631 12 106 20.113 106 34.1C105.924 36.8084 105.373 39.4824 104.372 42" stroke="white" stroke-width="3" stroke-miterlimit="10" stroke-linecap="round" stroke-linejoin="round"/>
<path d="M99 56V64" stroke="white" stroke-width="3" stroke-miterlimit="10" stroke-linecap="round" stroke-linejoin="round"/>
<path d="M95 60H103" stroke="white" stroke-width="3" stroke-miterlimit="10" stroke-linecap="round" stroke-linejoin="round"/>
<path d="M99 72C105.627 72 111 66.6274 111 60C111 53.3726 105.627 48 99 48C92.3726 48 87 53.3726 87 60C87 66.6274 92.3726 72 99 72Z" stroke="white" stroke-width="3" stroke-miterlimit="10" stroke-linecap="round" stroke-linejoin="round"/>
<path d="M81 71C81 71 59 49 59 34.1C59 20.113 70.369 12 81 12C91.631 12 103 20.113 103 34.1C102.924 36.8084 102.373 39.4824 101.372 42" stroke="#25354D" stroke-width="3" stroke-miterlimit="10" stroke-linecap="round" stroke-linejoin="round"/>
<path d="M81 42C85.4183 42 89 38.4183 89 34C89 29.5817 85.4183 26 81 26C76.5817 26 73 29.5817 73 34C73 38.4183 76.5817 42 81 42Z" stroke="#25354D" stroke-width="3" stroke-miterlimit="10" stroke-linecap="round" stroke-linejoin="round"/>
<path d="M97 56V64" stroke="#134CD8" stroke-width="3" stroke-miterlimit="10" stroke-linecap="round" stroke-linejoin="round"/>
<path d="M93 60H101" stroke="#134CD8" stroke-width="3" stroke-miterlimit="10" stroke-linecap="round" stroke-linejoin="round"/>
<path d="M97 72C103.627 72 109 66.6274 109 60C109 53.3726 103.627 48 97 48C90.3726 48 85 53.3726 85 60C85 66.6274 90.3726 72 97 72Z" stroke="#134CD8" stroke-width="3" stroke-miterlimit="10" stroke-linecap="round" stroke-linejoin="round"/>
</svg>
